<svg width="264px" height="401px"
 viewBox="0.00 0.00 263.88 400.80" xmlns="http://www.w3.org/2000/svg" xmlns:xlink="http://www.w3.org/1999/xlink">
<g id="graph0" class="graph" transform="scale(1.0 1.0) rotate(0) translate(4 396.8)">
<title>de.uniks.pmws2122.model</title>
<polygon fill="white" stroke="transparent" points="-4,4 -4,-396.8 259.88,-396.8 259.88,4 -4,4"/>
<!-- Field -->
<g id="node1" class="node">
<title>Field</title>
<polygon fill="none" stroke="black" points="39,-34.8 39,-56.8 145,-56.8 145,-34.8 39,-34.8"/>
<text text-anchor="start" x="77.61" y="-41.2" font-family="Times,serif" font-size="14.00">Field</text>
<polygon fill="none" stroke="black" points="39,-12.8 39,-34.8 145,-34.8 145,-12.8 39,-12.8"/>
<text text-anchor="start" x="42" y="-19.2" font-family="Times,serif" font-size="14.00">coordinate :String</text>
</g>
<!-- Field&#45;&gt;Field -->
<g id="edge1" class="edge">
<title>Field&#45;&gt;Field</title>
<path fill="none" stroke="black" d="M153.28,-26.4C163.75,-27.55 171,-30.35 171,-34.8 171,-39.25 163.75,-42.05 153.28,-43.2"/>
<text text-anchor="middle" x="162.22" y="-30.6" font-family="Times,serif" font-size="14.00">top</text>
<text text-anchor="middle" x="173.11" y="-13.8" font-family="Times,serif" font-size="14.00">bottom</text>
</g>
<!-- Field&#45;&gt;Field -->
<g id="edge6" class="edge">
<title>Field&#45;&gt;Field</title>
<path fill="none" stroke="black" d="M153.1,-16.8C173.08,-16.89 189,-22.89 189,-34.8 189,-46.71 173.08,-52.7 153.1,-52.8"/>
<text text-anchor="middle" x="166.32" y="-57" font-family="Times,serif" font-size="14.00">right</text>
<text text-anchor="middle" x="162.43" y="-4.2" font-family="Times,serif" font-size="14.00">left</text>
</g>
<!-- Game -->
<g id="node2" class="node">
<title>Game</title>
<polygon fill="none" stroke="black" points="99,-139.3 99,-161.3 178,-161.3 178,-139.3 99,-139.3"/>
<text text-anchor="start" x="121.79" y="-145.7" font-family="Times,serif" font-size="14.00">Game</text>
<polygon fill="none" stroke="black" points="99,-100.3 99,-139.3 178,-139.3 178,-100.3 99,-100.3"/>
<text text-anchor="start" x="102" y="-123.7" font-family="Times,serif" font-size="14.00">name :String</text>
<text text-anchor="start" x="102" y="-106.9" font-family="Times,serif" font-size="14.00">phase :String</text>
</g>
<!-- Field&#45;&gt;Game -->
<g id="edge3" class="edge">
<title>Field&#45;&gt;Game</title>
<path fill="none" stroke="black" d="M104.33,-61.12C109.65,-72.06 115.95,-85 121.66,-96.72"/>
<text text-anchor="middle" x="106.5" y="-84.12" font-family="Times,serif" font-size="14.00">game</text>
<text text-anchor="middle" x="125.13" y="-65.32" font-family="Times,serif" font-size="14.00">fields *</text>
</g>
<!-- Man -->
<g id="node3" class="node">
<title>Man</title>
<polygon fill="none" stroke="black" points="8,-227.8 8,-249.8 84,-249.8 84,-227.8 8,-227.8"/>
<text text-anchor="start" x="33.17" y="-234.2" font-family="Times,serif" font-size="14.00">Man</text>
<polygon fill="none" stroke="black" points="8,-205.8 8,-227.8 84,-227.8 84,-205.8 8,-205.8"/>
<text text-anchor="start" x="11" y="-212.2" font-family="Times,serif" font-size="14.00">color :String</text>
</g>
<!-- Game&#45;&gt;Man -->
<g id="edge4" class="edge">
<title>Game&#45;&gt;Man</title>
<path fill="none" stroke="black" d="M105.31,-165.88C93.84,-177.66 81.17,-190.68 70.49,-201.64"/>
<text text-anchor="middle" x="87.79" y="-189.04" font-family="Times,serif" font-size="14.00">men *</text>
<text text-anchor="middle" x="90.15" y="-170.08" font-family="Times,serif" font-size="14.00">game</text>
</g>
<!-- Player -->
<g id="node4" class="node">
<title>Player</title>
<polygon fill="none" stroke="black" points="77,-366.3 77,-388.3 200,-388.3 200,-366.3 77,-366.3"/>
<text text-anchor="start" x="120.62" y="-372.7" font-family="Times,serif" font-size="14.00">Player</text>
<polygon fill="none" stroke="black" points="77,-293.3 77,-366.3 200,-366.3 200,-293.3 77,-293.3"/>
<text text-anchor="start" x="80" y="-350.7" font-family="Times,serif" font-size="14.00">name :String</text>
<text text-anchor="start" x="80" y="-333.9" font-family="Times,serif" font-size="14.00">color :String</text>
<text text-anchor="start" x="80" y="-317.1" font-family="Times,serif" font-size="14.00">action :String</text>
<text text-anchor="start" x="80" y="-300.3" font-family="Times,serif" font-size="14.00">initialPlacedMen :int</text>
</g>
<!-- Game&#45;&gt;Player -->
<g id="edge2" class="edge">
<title>Game&#45;&gt;Player</title>
<path fill="none" stroke="black" d="M127.72,-166.18C124,-199.68 123.5,-251.35 126.23,-289.71"/>
<text text-anchor="middle" x="163.93" y="-277.11" font-family="Times,serif" font-size="14.00">currentPlayer</text>
<text text-anchor="middle" x="164.25" y="-170.38" font-family="Times,serif" font-size="14.00">currentGame</text>
</g>
<!-- Game&#45;&gt;Player -->
<g id="edge5" class="edge">
<title>Game&#45;&gt;Player</title>
<path fill="none" stroke="black" d="M138,-166.18C138,-199.68 138,-251.35 138,-289.71"/>
<text text-anchor="middle" x="112.54" y="-277.11" font-family="Times,serif" font-size="14.00">players *</text>
<text text-anchor="middle" x="122.84" y="-170.38" font-family="Times,serif" font-size="14.00">game</text>
</g>
<!-- Man&#45;&gt;Field -->
<g id="edge7" class="edge">
<title>Man&#45;&gt;Field</title>
<path fill="none" stroke="black" d="M52.06,-201.63C60.86,-165.11 77.07,-97.8 85.89,-61.16"/>
<text text-anchor="middle" x="63.33" y="-65.36" font-family="Times,serif" font-size="14.00">position</text>
<text text-anchor="middle" x="40.01" y="-189.03" font-family="Times,serif" font-size="14.00">men</text>
</g>
<!-- Man&#45;&gt;Player -->
<g id="edge8" class="edge">
<title>Man&#45;&gt;Player</title>
<path fill="none" stroke="black" d="M66.65,-253.82C75.33,-264.35 85.78,-277.01 95.96,-289.35"/>
<text text-anchor="middle" x="78.47" y="-276.75" font-family="Times,serif" font-size="14.00">owner</text>
<text text-anchor="middle" x="49.34" y="-258.02" font-family="Times,serif" font-size="14.00">men *</text>
</g>
<!-- Player&#45;&gt;Game -->
<g id="edge10" class="edge">
<title>Player&#45;&gt;Game</title>
<path fill="none" stroke="black" d="M149.77,-289.71C152.5,-251.35 152,-199.68 148.28,-166.18"/>
<text text-anchor="middle" x="177.05" y="-153.58" font-family="Times,serif" font-size="14.00">wonGame</text>
<text text-anchor="middle" x="169.21" y="-277.11" font-family="Times,serif" font-size="14.00">winner</text>
</g>
<!-- Player&#45;&gt;Player -->
<g id="edge9" class="edge">
<title>Player&#45;&gt;Player</title>
<path fill="none" stroke="black" d="M207.67,-322.15C218.29,-325.07 225.5,-331.46 225.5,-341.3 225.5,-351.14 218.29,-357.53 207.67,-360.45"/>
<text text-anchor="middle" x="231.78" y="-347.85" font-family="Times,serif" font-size="14.00">previous</text>
<text text-anchor="middle" x="219.73" y="-309.55" font-family="Times,serif" font-size="14.00">next</text>
</g>
</g>
</svg>
